<?xml version="1.0" encoding="UTF-8"?>
<svg id="Layer_1" xmlns="http://www.w3.org/2000/svg" version="1.1" xmlns:xlink="http://www.w3.org/1999/xlink" viewBox="0 0 36 36">
  <!-- Generator: Adobe Illustrator 29.8.1, SVG Export Plug-In . SVG Version: 2.1.1 Build 2)  -->
  <defs>
    <style>
      .st0 {
        stroke: url(#linear-gradient);
        stroke-dasharray: 3.5 2.8;
        stroke-opacity: .4;
        stroke-width: .7px;
      }

      .st0, .st1 {
        fill: none;
      }

      .st1 {
        stroke: url(#linear-gradient1);
        stroke-opacity: .3;
        stroke-width: .6px;
      }

      .st2 {
        fill: #cbaa76;
      }
    </style>
    <linearGradient id="linear-gradient" x1="0" y1="203.6" x2="36" y2="239.6" gradientTransform="translate(0 -203.6)" gradientUnits="userSpaceOnUse">
      <stop offset="0" stop-color="#e8cc96"/>
      <stop offset="1" stop-color="#9a7140"/>
    </linearGradient>
    <linearGradient id="linear-gradient1" x1="0" y1="203.6" x2="36" y2="239.6" gradientTransform="translate(0 -203.6)" gradientUnits="userSpaceOnUse">
      <stop offset="0" stop-color="#e8cc96"/>
      <stop offset="1" stop-color="#9a7140"/>
    </linearGradient>
  </defs>
  <circle class="st0" cx="18" cy="18" r="16.5">
    <animateTransform accumulate="none" additive="replace" attributeName="transform" calcMode="linear" dur="24s" fill="remove" from="0 18 18" repeatCount="indefinite" restart="always" to="360 18 18" type="rotate"/>
  </circle>
  <circle class="st1" cx="18" cy="18" r="11.5"/>
  <g>
    <path class="st2" d="M14.2,17.4c-.1,1,0,2.3,0,3.3.2,1.8,1,3.3,2.5,4.3-3.7-.7-6.5-3.8-6.9-7.5l1.9,2.3c3.3,5.3,1.2-5.9,1.7-7.2.2-.3.6-.5.9-.3.1,0,.2.2.2.3,1,1.8,1.7,3.6,2.6,5.4,0,0,0,0,0,0-.9-.8-2.6-3.5-2.9-.7Z"/>
    <path class="st2" d="M19.7,20.4c-.4.8-.9,1.7-1.3,2.6-.2.3-.2.5-.3.5,0,0,0-.2-.2-.5-.4-.9-.8-1.7-1.3-2.6h0c.3,0,.8,0,.8,0,.6-3.2.9-6.7-.6-9.6h2.5c-1.5,2.9-1.2,6.5-.6,9.6,0,0,.5,0,.8,0h0Z"/>
    <path class="st2" d="M26.6,17.6c-.5,3.7-3.3,6.8-6.9,7.5,2.6-1.6,2.8-4.9,2.6-7.7-.3-2.7-2,0-2.9.7,0,0,0,0,0,0,.5-1.1,1-2.3,1.6-3.4.3-.7.6-1.4,1-2,0-.1.1-.2.2-.3.3-.2.7,0,.9.3.3.5,0,1.5,0,2.1-.1,1.5-.2,3-.2,4.4,0,.5,0,1,.1,1.5.3,1.6,1.5-.3,1.7-.8l1.9-2.3Z"/>
    <path class="st2" d="M20.4,9.7h0Z"/>
  </g>
</svg>